<svg width="48" height="48" viewBox="0 0 48 48" fill="none" xmlns="http://www.w3.org/2000/svg">
<g clip-path="url(#clip0_19130_1226)">
<path d="M36.1021 16.7808C34.8608 15.8746 33.3144 14.8706 31.6782 14.0248C32.9063 13.3454 34.7413 12.3184 35.4206 11.875C36.4772 11.1844 37.8521 10.4251 37.3568 13.2239C37.1382 14.4603 36.6767 15.6637 36.1021 16.7808Z" fill="#1B1B1B"/>
<path d="M45.5625 34.5491C44.3479 33.9414 42.5564 32.8736 41.3271 32.3517C40.3392 34.1866 38.0968 35.0458 35.3211 34.6988C32.9226 34.3994 31.349 32.8343 29.9249 31.8507C28.6506 30.9711 25.3789 28.3542 22.481 27.2547C19.2859 25.8285 16.3858 26.0562 14.3872 26.5549C13.3432 26.8163 8.79152 28.7539 12.0892 35.2487C13.7099 38.4418 13.4998 40.5353 12.8879 40.994C12.0892 41.5933 9.39142 39.6451 7.74264 38.2957C6.09377 39.3452 1.74714 41.4436 0.79736 41.2435C-0.375922 40.9976 -0.395515 37.5734 1.69736 35.2488C3.49586 33.2502 5.06036 31.8844 5.19452 30.3523C5.69402 24.6568 6.98945 21.3127 9.89017 18.0614C11.9141 15.7944 14.4369 14.4061 17.0763 13.6587C17.2379 14.2846 17.3847 14.8677 17.4978 15.3194C17.639 15.8849 17.7262 16.2467 17.7268 16.2475L18.5453 16.048C18.0219 14.0331 16.9315 9.90651 16.5479 8.97004C16.0358 7.71876 15.5089 6.1072 18.2354 7.00223C22.8433 8.51479 26.5021 12.5775 27.9985 17.4425L28.6469 17.3406C28.4453 16.0922 27.9129 14.7792 27.145 13.495C28.4299 13.7929 29.5968 14.1955 30.574 14.6647C33.3946 16.0185 36.0698 17.9623 37.4686 19.1616C43.5645 24.4573 45.5625 28.6542 47.3609 31.4517C49.1602 34.2498 46.7069 35.1216 45.5625 34.5491Z" fill="#1B1B1B"/>
</g>
<defs>
<clipPath id="clip0_19130_1226">
<rect width="48" height="48" fill="white" transform="matrix(1 0 0 -1 0 48)"/>
</clipPath>
</defs>
</svg>
